<svg version="1" xmlns="http://www.w3.org/2000/svg" width="11112" height="11112" viewBox="0 0 8334.000000 8334.000000"><path d="M2410.7 1416.6c-.1.1-3.8.4-8.2.8-4.4.4-9.8 1.1-12 1.6-2.2.5-5.2 1.1-6.7 1.4-15.5 2.7-35.7 11.1-52.3 21.5-37.2 23.3-64.7 62.7-73.1 104.6-.2 1.1-.6 3.1-.9 4.5-.7 3.9-1.3 8-2 15-.9 7.8-.9 3857.7 0 3880.5.7 21.6 1.9 44.4 3 59.5.3 4.1.8 10.6 1 14.5.3 3.8.7 9 1 11.5.2 2.5.7 7.4 1 11 .8 9.1 2.1 21.8 3 29 .3 1.9.7 6.2 1 9.5.3 3.3.7 6.7 1 7.5.2.8.6 4.2 1 7.5.3 3.3.8 7.1 1 8.5.2 1.4.7 4.5 1 7 .3 2.5.8 5.6 1 7 .3 1.4.7 4.3 1 6.5.7 4.6.9 6.3 2.5 16 .6 3.8 1.3 8.3 1.6 10 .2 1.6.7 4.3 1.1 6 .3 1.6.7 4.1.9 5.5.2 1.4.6 3.8 1 5.5.6 3.1 4.9 25.8 5.8 31 .3 1.6 1.3 6.1 2.1 10 .8 3.8 2.2 10.4 3.1 14.5.8 4.1 2.4 11.3 3.6 16 1.1 4.7 2.2 9.4 2.4 10.5.2 1.1 1.7 7.4 3.4 14s3.3 13.1 3.6 14.4c1 4.6 6.5 24.7 13 47.1 16 55.2 39.1 119.7 60.9 170 5 11.6 5.8 13.4 6 14 .1.3 1.3 3 2.7 6 1.4 3 4.7 10.2 7.3 16 4.6 10.3 19.8 42 23.4 49 1.9 3.6 7.2 13.7 17.6 33.5 16.7 31.7 54.8 96 68.1 114.8 1.9 2.6 3.4 4.9 3.4 5.1 0 .6 21.1 31.4 26.2 38.3 2.1 2.9 3.8 5.6 3.8 6.2 0 .5.3 1.1.8 1.3.4.2 5.7 7 11.7 15.3 29.1 39.8 65.4 84.5 94.9 117 15.4 16.9 17.8 19.5 27.1 29.4 11.5 12.2 48.6 49.2 59.6 59.5 16.1 15.2 19.4 18.3 25.9 24.1 3.6 3.2 8.3 7.4 10.5 9.4 2.2 2 7.4 6.5 11.5 10.1 4.1 3.6 7.7 6.7 8 7 .3.3 4.3 3.7 9 7.5s9.1 7.6 9.9 8.3c2.5 2.4 39.4 31.7 50.1 39.8 5.8 4.3 10.7 8.1 11 8.4.3.3 2.8 2.2 5.5 4.1 2.8 1.8 5.2 3.6 5.5 4 .3.3 4.6 3.4 9.5 6.9 5 3.5 11.9 8.5 15.5 11.1 24.9 17.8 83.7 55.5 108.5 69.4 2.2 1.3 8.1 4.6 13 7.5 9.6 5.6 15.5 8.9 27.5 15.2 4.1 2.2 10 5.4 13 7.1 6.4 3.6 56.2 28.4 63.5 31.7 2.8 1.3 8.8 4.1 13.5 6.3 4.7 2.2 11.9 5.4 16 7.2 4.1 1.8 9.5 4.1 12 5.3 11 4.9 25.1 10.7 45.5 18.7 12.1 4.7 22.9 9 24 9.5 3.1 1.4 40.5 14.7 43.5 15.5.3.1 1.2.4 2 .8.8.3 8 2.7 16 5.3 8 2.5 17 5.5 20.1 6.5 6.3 2 53.2 15.7 56.4 16.4 1.1.2 10.7 2.7 21.3 5.4 10.6 2.8 20.3 5.3 21.5 5.5 1.2.3 6.3 1.4 11.2 2.6 13.2 3 46.2 10 52 11 6.5 1.2 10.4 1.9 13.5 2.5 1.4.3 3.7.8 5.3 1 1.5.3 3.9.7 5.5 1 1.5.3 4.3.8 6.2 1.1 1.9.2 4.6.7 6 1 6.9 1.3 24.5 4.1 30.9 4.9 2.3.3 5.5.7 7 .9 1.4.3 6.4 1 11.1 1.6 8.2 1.1 11.1 1.5 18.3 2.4 1.7.3 5.9.7 9.2 1.1 3.3.3 6.9.8 8 1 1.1.2 5.8.7 10.5 1 4.7.4 9.2.8 10 1 .8.2 5.1.7 9.5 1 4.4.3 9.8.8 12 1 2.2.3 8.3.7 13.5 1 5.2.3 11.1.8 13 1 1.9.2 10 .7 18 1 8 .4 17.2.9 20.5 1.2 3.3.3 75 .6 159.3.8l153.2.4V5853.7c.1-584.8.3-1065.8.5-1069 1.2-16.7 5.5-33.4 12.8-49.7 2.7-6.1 11.9-22 13.9-24.2.7-.7 2.6-3.1 4.2-5.3 5.4-7.4 22.5-23.3 31.8-29.5 19.8-13.3 42.5-21.9 64.5-24.4 7.1-.8 26.6-.9 33.3-.1 38.7 4.6 74.9 25.2 98.6 56.2 5.6 7.3 17.4 27.4 17.4 29.7 0 .7.4 1.6.9 2.2 2.5 2.6 8.2 24.1 10.2 37.9.7 4.6 1 371.7 1 1073.2l.1 1066.2 152.6-.3c84-.2 155.9-.6 159.7-.9 3.9-.3 13.1-.8 20.5-1.2 7.4-.4 15.5-.8 18-1 2.5-.2 8.8-.6 14-1 5.2-.3 11.1-.8 13-1 1.9-.1 7.1-.6 11.5-1 4.4-.3 9.4-.8 11-1 1.7-.2 6.2-.7 10-1 3.9-.4 7.7-.8 8.5-1 .9-.2 4.5-.6 8.1-.9 3.6-.4 7.6-.8 9-1.1 2.2-.3 4.7-.6 16.7-2.1 2.6-.3 5.4-.7 6.2-.9.8-.2 4.2-.7 7.5-1 3.3-.4 6.7-.8 7.5-1 .8-.2 3.5-.7 6-1 2.5-.3 5.6-.8 7-1 1.4-.3 3.9-.7 5.5-.9 4.2-.7 20.5-3.5 23.5-4.1 1.3-.2 4.2-.7 6.5-1.1 2.2-.3 5.9-1 8.3-1.5 2.3-.5 5.9-1.2 8-1.5 2-.3 4-.8 4.3-.9.3-.2 2.8-.7 5.5-1.1 2.7-.3 5.2-.8 5.5-1 .4-.2 2.4-.6 4.5-1 2.2-.3 5.7-1 7.9-1.6 2.2-.5 5.1-1.2 6.5-1.5 1.4-.2 4.5-.9 7-1.4 2.5-.6 5.4-1.3 6.5-1.5 1.1-.2 2.9-.6 4-.9 1.1-.2 5.8-1.3 10.5-2.4 22.6-5.3 52.2-13.2 74-19.6 8.5-2.6 16-4.7 16.5-4.9 22.6-5.7 102.7-34.4 139.5-49.8 45.6-19.2 102-46 136.5-64.8 13-7.1 48.4-27.1 51.5-29 .8-.5 8.5-5.2 17-10.3 25.7-15.5 57.6-36.2 79.2-51.5 3.7-2.6 9.4-6.5 12.5-8.7 5.6-3.8 50.7-37.4 54.8-40.7 1.1-.9 7.2-5.8 13.5-10.8 6.3-5.1 13.3-10.6 15.4-12.3 4.4-3.6 17.5-14.5 22.1-18.6 1.7-1.4 6.2-5.3 10-8.6 3.9-3.3 7.5-6.4 8.1-7 .6-.5 4.2-3.7 7.9-7 7.9-6.9 8.9-7.9 22.1-20.2 29.2-27 65-63 86-86.3 2.7-3 5.8-6.4 6.9-7.5 1.1-1.1 4.9-5.4 8.5-9.5 3.6-4.1 7.4-8.4 8.5-9.6 1.1-1.1 4-4.4 6.5-7.4 2.5-2.9 5-5.8 5.5-6.4 6-6.4 40.4-49 54.6-67.6 3.5-4.7 6.7-8.9 7.2-9.5 18.3-24.1 59-83.4 72.3-105.5 2.1-3.6 4.2-6.6 4.7-6.8.4-.2.7-.7.7-1.2s2.3-4.5 5-8.9c2.8-4.4 5-8.3 5-8.6 0-.4 1.1-2.1 2.5-3.9 1.4-1.8 2.5-3.5 2.5-3.8 0-.3 1.7-3.5 3.9-7 2.1-3.5 5.1-8.7 6.7-11.6 1.6-2.9 3.4-6.1 3.9-7 16.8-28.7 42.1-78.7 63.9-126.6 13.7-30.1 44-107 49.4-125.6.6-1.9 2.4-7.5 4.1-12.4 3.2-8.8 15-46.7 17.6-56.1l4-14c3.1-10.4 15.8-60.7 18.1-71 .8-3.9 1.7-7.7 1.9-8.5 1.7-7 8.9-43.1 10.9-54 .5-3.3 2.5-13.9 3-16.5.5-2.7 4.7-28.4 5.1-31.5.3-2.8 1.4-10.1 2-14 .7-4.4 3.4-25.3 4-31 .4-3 .8-6.6 1-8 .2-1.4.6-5.2 1-8.5.3-3.3.8-7.8 1-10 1.4-13.7 2.4-25 3-32.5.3-3.6.7-9 1-12 .4-5.5 1.5-21.7 2-32 .2-3 .7-14.7 1.1-26 .9-25.8 1.1-3881.2.1-3890-.4-3.6-.9-7.7-1.2-9.3-.3-1.5-.7-3.7-.9-5-10.3-57-53.6-106.4-109.6-124.7-11.4-3.8-13.8-4.4-23.5-6-2.7-.4-7-1.1-9.5-1.6-3.4-.6-3521.5-1.4-3522.3-.8zM5507 1996.4c18.1 2.7 23.1 3.8 37.7 8.7 9 3 31.3 13.6 34.4 16.5.8.8 2 1.4 2.6 1.4.6 0 1.3.3 1.5.7.2.5 2.9 2.6 6.1 4.7 7.9 5.4 24.3 21.1 31.8 30.4 10.4 12.9 17.4 24.4 24.3 40.1 4.2 9.6 10.1 28.4 10.9 35.1.4 2.5.9 5.6 1.2 7 .3 1.4.9 6.5 1.2 11.5.9 12.5.8 243.2-.1 253-.8 9.2-2.7 19-5.6 29-1.1 3.8-2.2 7.7-2.4 8.6-.9 3.6-8 19.8-11.4 25.9-16 29.1-37.8 51.4-66.7 68.2-2.8 1.7-7.1 3.8-17.5 8.6-11.7 5.4-34.2 11.2-50 12.8-8.4.8-2669.8.8-2677.1-.1-13.9-1.6-32.9-6-42.4-9.7-50-19.7-86.4-57.5-102.8-106.8-3.2-9.8-6.5-23.5-7.3-30.5-.1-1.7-.6-5.7-.9-9-.9-8-1-239.7-.1-250 .4-4.4 1.1-10.3 1.6-13 .5-2.8 1.1-6.1 1.4-7.5 1.7-10.5 8.4-29.8 14.5-41.8 3.6-7.2 11.5-20.2 14.2-23.6.5-.6 3-3.8 5.5-7.1 8.9-11.4 26.5-27.5 39.4-36 22-14.5 48.2-23.8 76.2-27.1 2.9-.4 5.4-.7 5.5-.8.6-.5 2670.8.3 2674.3.8zm0 924c18.3 2.1 38.6 8 55.5 16.1 11.4 5.5 27.9 16 35 22.2 11.3 10 18.4 17.4 24.5 25.3 1.9 2.5 3.8 4.7 4.1 5 1.4 1.1 9.9 15 14.2 23 7.8 14.7 15.3 37.8 17.2 53 .4 3 1 6.4 1.2 7.5.8 3.3.9 247.4.1 254.5-.4 3.6-1 8.7-1.4 11.5-.8 6.8-5.7 25.6-8.7 33.5-16.8 44.2-49.7 78.6-93.7 97.8-8.3 3.7-23.1 8.3-30.3 9.6-1.5.3-3.5.7-4.5 1-1.6.4-7.2 1.2-15.7 2.2-5.7.7-2672.3.6-2676.5-.1-1.9-.3-5.3-.7-7.5-1-29.5-4-61.7-18.2-84.5-37.4-35.7-30.1-56.4-69.5-61.6-117.6-.9-8.3-.8-240.1 0-249.9.4-4.3.9-8.7 1.1-9.6.2-1 .6-3.5.9-5.6 6.1-38.3 27.5-75.4 59.2-102.4 5.3-4.5 14.3-11 15.3-11 .5 0 1.1-.4 1.3-.8.4-1 7.9-5.4 17.8-10.4 6.9-3.5 27.8-11.3 33.2-12.3 1.3-.3 4.6-.9 7.3-1.5 8.9-1.8 9.9-2 17.5-2.6 4.1-.4 7.6-.7 7.7-.8.7-.5 2666.3.2 2671.3.8zm1 924c28.1 3.4 57.5 14.8 80 31 37.1 26.7 62.4 68 69.5 113.1.3 2.2.8 5.8 1.2 8 .9 6 1 243.5.1 254-1.3 14.9-5.6 34.6-9.9 45-.7 1.6-1.3 3.5-1.4 4-.5 2.3-10.5 21.6-14.6 28.1-20.3 32.6-54 58.9-90.9 71.1-4.1 1.3-8.6 2.6-10 2.9-1.4.3-3.8.9-5.5 1.4-1.6.5-4.8 1.2-7 1.5-2.3.3-5 .7-6 .9-1.1.2-4.6.7-7.9 1.1-7.2.8-2671.3.9-2677.6 0-27.3-3.7-45.5-9.5-65.4-20.5-35.4-19.7-61.9-49.8-76.8-87.3-3.7-9.3-8-24.7-9.4-33.1-.3-2.1-.7-4.6-.9-5.5-1.4-7.5-1.8-35-1.8-136.1 0-105.5.3-122.4 1.9-134 9.4-65.1 55.9-119.3 119.2-139 5.4-1.7 10.7-3.2 11.8-3.4 4.5-.8 9-1.6 10.9-2 1.1-.2 4.9-.7 8.5-1.1 3.6-.4 6.6-.8 6.7-.8.6-.6 2670.9.2 2675.3.7z"/><path d="M2961.8 2175.6c-.3.2-2.2.6-4.3 1-18.4 2.9-37.9 12.6-52.2 25.8-33 30.6-42.2 78.8-22.8 119.1 14.5 30 41.2 50.2 75.5 57.1 5.1 1 590.7 1.2 598.2.2 34.6-4.6 63.7-25.4 79.1-56.4 3.2-6.5 6.3-14.6 7.1-19 .2-1 1-3.9 1.7-6.4 1.7-6 1.7-31.8 0-39.4-6-27.4-21-49.8-43.6-65.1-9.3-6.2-20.9-11.4-31-13.9-3.8-.9-8.1-2-9.5-2.3-2.5-.7-597.6-1.4-598.2-.7zM2960.5 3100.1c-2.2.4-5.7 1-7.7 1.4-9.4 1.5-23.7 7.6-34.1 14.3-27.5 17.9-45 48.9-46.1 81.5-.7 23.2 4.9 42.5 18.1 62.5 5 7.6 19.1 21.7 25.9 25.9 15.7 9.9 29.2 15 44.9 17.1 7.2.9 592.5.8 597.5-.2 12.9-2.4 29.4-8.1 33.1-11.2.8-.8 2.1-1.4 2.7-1.4.6 0 1.7-.6 2.4-1.3.7-.6 3.3-2.5 5.8-4.2 20.6-13.6 38-41.9 41.7-67.5 1.3-9.2.7-27.9-1.1-36.5-8.7-41.5-41.9-73.2-83.8-80-8.1-1.3-46.3-1.5-302.3-1.4-161.1.1-294.8.5-297 1zM3051.7 4017.5c-.1.2-3.7.5-8 .8-4.3.4-8.1.8-8.5 1.1-.4.2-2.3.7-4.2 1-9.9 1.6-26.6 8.9-38 16.6-8.9 6-22.8 20.6-28.8 30.3-7.8 12.5-12 23.2-15.8 40.7-1.2 5.6-1.1 25.9.2 34 4.1 26.1 18.7 51.7 37.3 66 1.8 1.4 3.8 3 4.5 3.7 2.5 2.2 12.2 8.1 18.7 11.1 15.4 7.3 29.6 10.2 47.9 9.7 15.3-.4 17.2-.6 29-4.1 27.8-8.3 52-28.6 65.2-54.8 2.7-5.4 5.2-11.5 6.4-15.6 6-21.1 6.4-40.5 1.3-60.3-7.2-28.3-28.7-55-54.9-68.1-7.8-4-19-8.1-24.5-9.2-2.2-.4-4.2-.8-4.5-.9-3-.9-22.5-2.5-23.3-2zM3456.7 4017.6c-.1.1-3 .4-6.3.8-27.8 2.9-56.2 19.4-73.7 43-8.5 11.5-16.1 28.3-18.3 40.2-.3 1.5-.7 3-.9 3.4-.7 1.1-1.8 14.3-1.7 21.5 0 19.4 6.2 40.6 16.7 57 3.2 5 13 16.8 16.9 20.3 15.9 14.4 35.5 24.1 55.5 27.7 10.9 1.9 30.6 1.6 40.5-.7 9-2.1 19.4-5.5 21.4-7 .6-.6 1.2-.8 1.2-.4 0 .3 3.5-1.5 7.8-4 29.2-17.2 46.4-41.2 53.8-74.9 1.3-6.2 1.3-30-.1-37.5-9.4-51.6-52.5-88.3-104.8-89.4-4.3-.1-7.9-.1-8 0z"/></svg>